<svg width="511" height="280" viewBox="0 0 511 280" fill="none" xmlns="http://www.w3.org/2000/svg">
<g clip-path="url(#clip0_1_17)">
<rect width="511" height="280" fill="#1E88E5"/>
<circle cx="402" cy="33" r="104" fill="#1976D3"/>
<ellipse cx="517" cy="84.5" rx="115" ry="108.5" fill="#1565C0"/>
<g filter="url(#filter0_d_1_17)">
<path d="M212 215C218.667 212.833 232 207 238.5 205C244.145 203.263 250.667 210.5 253.5 215L264 235C267.5 240.167 275.7 248.1 280.5 238.5C285.3 228.9 293.833 208.833 297.5 200C298.953 196.5 301.1 190.7 309.5 193.5C312.5 194.5 313 195.8 326 201C331 203 338.9 204.2 342.5 201C346.1 197.8 356 188 360.5 183.5C363 181.167 369 177.9 373 183.5C377 189.1 387.667 200.167 392.5 205C394.667 206.667 399.9 209 403.5 205C408 200 425 177 427 177" stroke="white" stroke-width="4"/>
</g>
</g>
<defs>
<filter id="filter0_d_1_17" x="207.382" y="175" width="224.292" height="78.0099" filterUnits="userSpaceOnUse" color-interpolation-filters="sRGB">
<feFlood flood-opacity="0" result="BackgroundImageFix"/>
<feColorMatrix in="SourceAlpha" type="matrix" values="0 0 0 0 0 0 0 0 0 0 0 0 0 0 0 0 0 0 127 0" result="hardAlpha"/>
<feOffset dy="4"/>
<feGaussianBlur stdDeviation="2"/>
<feComposite in2="hardAlpha" operator="out"/>
<feColorMatrix type="matrix" values="0 0 0 0 0 0 0 0 0 0 0 0 0 0 0 0 0 0 0.25 0"/>
<feBlend mode="normal" in2="BackgroundImageFix" result="effect1_dropShadow_1_17"/>
<feBlend mode="normal" in="SourceGraphic" in2="effect1_dropShadow_1_17" result="shape"/>
</filter>
<clipPath id="clip0_1_17">
<rect width="511" height="280" fill="white"/>
</clipPath>
</defs>
</svg>
